<?xml version="1.0" encoding="UTF-8"?><svg id="Capa_2" xmlns="http://www.w3.org/2000/svg" width="1476.5" height="222.4" viewBox="0 0 1476.5 222.4"><defs><style>.cls-1{fill:#5cb7cc;}.cls-2{fill:#fe3fa0;}.cls-3{fill:#f4b12c;}</style></defs><g id="Layer_1"><path class="cls-2" d="M241.6,0h79.3l69.3,222.4h-67.4l-4.2-18h-73.9l-4.6,18h-67.7L241.6,0ZM304.4,150.4l-23.1-84.6-22.3,84.6h45.4Z"/><path class="cls-2" d="M376,110.8c0-61.1,49.6-110.8,109.7-110.8s109.3,49.7,109.3,110.8-49.6,111.6-109.3,111.6-109.7-49.7-109.7-111.6ZM530.3,111.2c0-24.7-20.4-45.4-44.6-45.4s-45,20.8-45,45.4,20.4,46.2,45,46.2,44.6-20.8,44.6-46.2Z"/><path class="cls-1" d="M150.1,0l-4.6,18-14.2,54-22.3,84.6-23.1-84.6c-1,0-14.2-54-14.2-54L67.4,0H0l69.3,222.4h79.3L217.8,0h-67.7Z"/><path class="cls-2" d="M607.3.1h115.8c40.8,0,75,33.3,75,79.8s-34.2,80.2-75,80.2h-51.2v62.2h-64.6V.1ZM733.5,80.7c0-12.5-10.4-22.7-23.1-22.7h-38.5v46.2h38.5c12.7,0,23.1-10.6,23.1-23.5Z"/><path class="cls-2" d="M810.5.1h149.2v54h-84.6v34.1h65.4v46.2h-65.4v34.1h84.6v54h-149.2V.1Z"/><path class="cls-3" d="M1020.7,179.2c12,0,21.6,9.7,21.6,21.8s-9.6,21.4-21.6,21.4-21.9-9.5-21.9-21.4,9.6-21.8,21.9-21.8Z"/><path class="cls-3" d="M1050.3,148.3c0-40.6,31.7-73.6,70-73.6s24.6,3.6,33.6,8.6v41.1c-7.4-5.2-17.4-8.6-28.2-8.6-18.4,0-34.1,13.5-34.1,32.8s15.7,33.3,34.1,33.3,21.4-4.2,28.2-9.1v41.1c-9.1,4.9-18.9,8.6-33.6,8.6-38.3,0-70-33-70-74.2Z"/><path class="cls-3" d="M1161.8,148.3c0-40.6,31.7-73.6,70-73.6s69.8,33,69.8,73.6-31.7,74.2-69.8,74.2-70-33-70-74.2ZM1260.3,148.5c0-16.4-13-30.2-28.5-30.2s-28.7,13.8-28.7,30.2,13,30.7,28.7,30.7,28.5-13.8,28.5-30.7Z"/><path class="cls-3" d="M1309.5,74.6h60.9l21.9,84.6,20.9-84.6h63.4v147.8h-38.8c0-86.4,2.5-101.5,0-102.8-4.2,0-4.9,13-28.5,102.8h-32.4c-23.6-89.8-24.3-102.5-28.5-102.8-2.2,1.3,0,16.4,0,102.8h-38.8V74.6Z"/></g></svg>